<svg width="33" height="33" viewBox="0 0 33 33" fill="none" xmlns="http://www.w3.org/2000/svg">
<rect x="0.444824" y="0.684082" width="32.1068" height="32.0492" rx="9.67737" fill="#4C536A"/>
<g clip-path="url(#clip0_1365_12813)">
<path d="M16.776 9.5302C16.8382 9.11639 17.1232 8.6766 17.5289 8.6766C17.9395 8.6766 18.2736 9.01006 18.2736 9.41993H19.7629C19.7629 8.19031 18.7607 7.18994 17.5289 7.18994C16.2768 7.18994 15.4615 8.25628 15.303 9.31114L14.8241 12.5419H12.5397V14.0286H14.6037L13.1434 23.8804L13.1391 23.9152C13.0995 24.3099 12.7894 24.7325 12.3907 24.7325C11.9801 24.7325 11.6461 24.399 11.6461 23.9892H10.1567C10.1567 25.2188 11.1589 26.2191 12.3907 26.2191C13.644 26.2191 14.5045 25.1361 14.6191 24.0822L16.1092 14.0286H18.348V12.5419H16.3296L16.776 9.5302Z" fill="white"/>
<path d="M22.8354 16.4075H21.0469L20.0793 17.8601L19.4342 16.4075H17.8051L19.1019 19.3276L17.0364 22.4284H18.8249L19.8172 20.9386L20.4788 22.4284H22.1079L20.7947 19.4711L22.8354 16.4075Z" fill="white"/>
</g>
<defs>
<clipPath id="clip0_1365_12813">
<rect width="19.0634" height="19.0292" fill="white" transform="translate(6.96436 7.18994)"/>
</clipPath>
</defs>
</svg>
