<svg width="151" height="39" viewBox="0 0 151 39" fill="none" xmlns="http://www.w3.org/2000/svg">
<path d="M0.923828 19.5275C0.923828 8.93471 9.51101 0.347534 20.1038 0.347534L131.576 0.347534C142.168 0.347534 150.756 8.93471 150.756 19.5275V19.5275C150.756 30.1204 142.168 38.7076 131.575 38.7076L20.1038 38.7076C9.511 38.7076 0.923828 30.1204 0.923828 19.5275V19.5275Z" fill="#5AC990"/>
<path d="M23.8787 14.1835V14.4382C23.4978 14.4588 23.2199 14.5077 23.0449 14.5849C22.7824 14.7085 22.6511 14.9221 22.6511 15.2257C22.6511 15.2669 22.6537 15.3107 22.6588 15.357C22.664 15.3981 22.6691 15.4393 22.6743 15.4805L23.6934 22.3594H23.786L26.9746 16.8547C27.1341 16.5819 27.2859 16.3014 27.4301 16.0132C27.672 15.5242 27.7929 15.1846 27.7929 14.9941C27.7929 14.8037 27.7183 14.675 27.569 14.6081C27.4198 14.5412 27.165 14.4846 26.8047 14.4382V14.1835H29.7385V14.4382C29.512 14.4846 29.3421 14.5412 29.2289 14.6081C29.1208 14.675 28.9973 14.8243 28.8583 15.0559L22.9599 24.7913H22.6511L21.3155 16.5614C21.1559 15.5886 21.017 15.0044 20.8986 14.8088C20.7854 14.6132 20.51 14.4897 20.0725 14.4382V14.1835H23.8787Z" fill="white"/>
<path d="M47.7756 21.5568V22.6376H39.7927V21.5568H47.7756ZM47.7756 18.3682V19.4491H39.7927V18.3682H47.7756Z" fill="white"/>
<path d="M55.35 24.2126C56.1066 24.2126 56.6264 23.7982 56.9095 22.9696C57.1926 22.1409 57.3341 20.9417 57.3341 19.3719C57.3341 18.1212 57.2492 17.1227 57.0793 16.3764C56.7602 14.9867 56.1632 14.2919 55.2882 14.2919C54.4132 14.2919 53.8136 15.0073 53.4893 16.4381C53.3195 17.1999 53.2346 18.2035 53.2346 19.4491C53.2346 20.6174 53.3221 21.5516 53.4971 22.2516C53.8265 23.5589 54.4441 24.2126 55.35 24.2126ZM55.3268 13.875C56.5106 13.875 57.4293 14.4952 58.083 15.7356C58.6028 16.7392 58.8627 17.8921 58.8627 19.1943C58.8627 20.2186 58.7032 21.1836 58.3841 22.0895C57.7819 23.7931 56.7396 24.6449 55.2573 24.6449C54.2434 24.6449 53.4096 24.1843 52.7559 23.263C52.0559 22.2799 51.7059 20.9443 51.7059 19.2561C51.7059 17.9282 51.9401 16.7855 52.4085 15.8282C53.0416 14.526 54.0143 13.875 55.3268 13.875Z" fill="white"/>
<path d="M61.735 24.6835C61.488 24.6835 61.2795 24.5986 61.1097 24.4287C60.9398 24.2538 60.8549 24.0453 60.8549 23.8034C60.8549 23.5615 60.9398 23.3556 61.1097 23.1858C61.2847 23.0159 61.4931 22.931 61.735 22.931C61.9769 22.931 62.1828 23.0159 62.3527 23.1858C62.5225 23.3556 62.6074 23.5615 62.6074 23.8034C62.6074 24.0453 62.5225 24.2538 62.3527 24.4287C62.188 24.5986 61.9821 24.6835 61.735 24.6835Z" fill="white"/>
<path d="M63.9743 23.0854C64.2676 23.0854 64.6511 23.2527 65.1246 23.5872C65.6033 23.9166 65.9713 24.0813 66.2286 24.0813C66.8205 24.0813 67.3378 23.8214 67.7804 23.3016C68.2231 22.7766 68.4444 22.1332 68.4444 21.3715C68.4444 20.0384 67.7341 19.0785 66.3135 18.4918C65.5261 18.1675 64.7926 18.0054 64.1132 18.0054C64 18.0054 63.9279 18.0028 63.8971 17.9976C63.8713 17.9874 63.8379 17.959 63.7967 17.9127C63.807 17.8715 63.8147 17.8381 63.8199 17.8124C63.8302 17.7815 63.8404 17.7532 63.8507 17.7274L65.5338 14.0371H68.8458C69.0105 14.0371 69.1366 14.0088 69.2241 13.9522C69.3168 13.8955 69.4352 13.79 69.5793 13.6356L69.7028 13.7437L69.1006 15.172C69.08 15.2183 69.0234 15.2492 68.9308 15.2646C68.8381 15.2749 68.7378 15.2801 68.6297 15.2801H65.6419L64.9856 16.6311C65.8297 16.7753 66.4474 16.9116 66.8385 17.0403C67.4819 17.2565 68.0198 17.5756 68.4521 17.9976C68.8227 18.3631 69.1032 18.7748 69.2936 19.2329C69.4841 19.6858 69.5793 20.1671 69.5793 20.6766C69.5793 21.8141 69.1727 22.7637 68.3595 23.5255C67.5514 24.2872 66.5271 24.6681 65.2867 24.6681C64.7823 24.6681 64.3757 24.6192 64.0669 24.5214C63.5522 24.3618 63.2949 24.0762 63.2949 23.6644C63.2949 23.51 63.3489 23.3762 63.457 23.263C63.5702 23.1446 63.7427 23.0854 63.9743 23.0854Z" fill="white"/>
<path d="M71.6101 23.1549C71.8931 23.1549 72.2663 23.3016 72.7295 23.5949C73.1979 23.8883 73.5942 24.035 73.9185 24.035C74.639 24.035 75.1743 23.7931 75.5243 23.3093C75.8743 22.8203 76.0493 22.2902 76.0493 21.7189C76.0493 21.1682 75.9077 20.6843 75.6247 20.2674C75.146 19.5623 74.3379 19.2098 73.2005 19.2098C73.1335 19.2098 73.0692 19.2123 73.0074 19.2175C72.9457 19.2175 72.8736 19.2226 72.7913 19.2329L72.7758 19.0322C73.5993 18.7337 74.2479 18.3914 74.7214 18.0054C75.1949 17.6193 75.4317 17.1098 75.4317 16.4767C75.4317 15.9157 75.2438 15.4885 74.8681 15.1951C74.4975 14.9018 74.0729 14.7551 73.5942 14.7551C73.028 14.7551 72.5288 14.9635 72.0964 15.3804C71.8597 15.6069 71.6049 15.9569 71.3321 16.4304L71.0928 16.3764C71.2987 15.594 71.6821 14.9687 72.2431 14.5003C72.8041 14.0319 73.4527 13.7977 74.1887 13.7977C74.9762 13.7977 75.5835 14.0139 76.0107 14.4463C76.443 14.8786 76.6592 15.3779 76.6592 15.944C76.6592 16.4433 76.4816 16.9014 76.1265 17.3183C75.9258 17.555 75.6144 17.8201 75.1923 18.1135C75.6864 18.3245 76.0827 18.5715 76.3813 18.8546C76.9423 19.395 77.2228 20.0796 77.2228 20.9082C77.2228 21.8862 76.8368 22.7483 76.0647 23.4946C75.2978 24.2409 74.2041 24.614 72.7836 24.614C72.1505 24.614 71.7053 24.5214 71.4479 24.3361C71.1957 24.1457 71.0696 23.9424 71.0696 23.7262C71.0696 23.5924 71.1108 23.4637 71.1932 23.3402C71.2807 23.2166 71.4196 23.1549 71.6101 23.1549Z" fill="white"/>
<path d="M119.375 14.145C119.704 14.0987 119.97 14.0627 120.17 14.0369C120.376 14.0061 120.554 13.9777 120.703 13.952C121.31 13.8336 121.637 13.7693 121.683 13.759C121.73 13.7487 121.766 13.7436 121.792 13.7436C121.853 13.7744 121.884 13.813 121.884 13.8594L120.07 20.7537C120.718 19.7964 121.249 19.0964 121.66 18.6537C122.381 17.892 123.042 17.5111 123.644 17.5111C123.892 17.5111 124.128 17.5909 124.355 17.7504C124.586 17.9049 124.702 18.1854 124.702 18.592C124.702 18.6898 124.689 18.8159 124.664 18.9703C124.638 19.1247 124.607 19.2611 124.571 19.3795L123.529 23.0775C123.498 23.1805 123.472 23.2808 123.451 23.3786C123.431 23.4713 123.421 23.5562 123.421 23.6334C123.421 23.7209 123.441 23.7878 123.482 23.8341C123.524 23.8753 123.583 23.8959 123.66 23.8959C123.819 23.8959 124.007 23.7852 124.223 23.5639C124.357 23.4249 124.607 23.1213 124.972 22.6529L125.173 22.8382C124.813 23.3735 124.507 23.7646 124.254 24.0117C123.807 24.4492 123.356 24.6679 122.903 24.6679C122.697 24.6679 122.525 24.6036 122.386 24.4749C122.247 24.3462 122.178 24.161 122.178 23.9191C122.178 23.8521 122.18 23.7904 122.185 23.7338C122.196 23.672 122.211 23.6051 122.232 23.533L123.421 19.0089C123.431 18.9677 123.439 18.9265 123.444 18.8853C123.454 18.839 123.459 18.7927 123.459 18.7464C123.459 18.6177 123.421 18.5173 123.343 18.4453C123.261 18.3732 123.156 18.3372 123.027 18.3372C122.682 18.3372 122.247 18.6151 121.722 19.171C121.197 19.7217 120.754 20.2853 120.394 20.8618C120.147 21.2684 119.959 21.6518 119.831 22.0121C119.707 22.3724 119.465 23.2011 119.105 24.4981H117.908L120.379 15.1332C120.394 15.0663 120.404 15.0097 120.41 14.9634C120.415 14.9171 120.417 14.8733 120.417 14.8321C120.417 14.6108 120.345 14.4796 120.201 14.4384C120.057 14.3921 119.782 14.3792 119.375 14.3998V14.145Z" fill="white"/>
<path d="M126.818 22.7069C126.818 23.0209 126.89 23.2963 127.034 23.533C127.178 23.7646 127.423 23.8804 127.767 23.8804C128.503 23.8804 129.211 23.2886 129.891 22.1048C130.529 20.993 130.848 19.9405 130.848 18.9471C130.848 18.6331 130.796 18.3732 130.694 18.1674C130.591 17.9615 130.382 17.8585 130.068 17.8585C129.286 17.8585 128.529 18.4916 127.798 19.7578C127.145 20.8901 126.818 21.8731 126.818 22.7069ZM129.983 17.4957C130.39 17.4957 130.678 17.5935 130.848 17.7891C130.946 17.9023 131.023 18.0953 131.08 18.3681L131.96 15.2027C131.985 15.1152 132.001 15.038 132.006 14.9711C132.016 14.899 132.021 14.8373 132.021 14.7858C132.021 14.5851 131.983 14.459 131.906 14.4075C131.834 14.356 131.728 14.3303 131.589 14.3303C131.502 14.3303 131.419 14.3329 131.342 14.338C131.27 14.3432 131.172 14.3509 131.049 14.3612V14.1064C131.63 14.0292 132.436 13.8954 133.465 13.705L133.535 13.7822L133.519 13.8671L132.037 19.4181L131.025 23.093C131.005 23.1753 130.987 23.2525 130.971 23.3246C130.961 23.3915 130.956 23.4533 130.956 23.5099C130.956 23.6488 130.989 23.7389 131.056 23.7801C131.128 23.8213 131.19 23.8418 131.242 23.8418C131.391 23.8418 131.602 23.7106 131.875 23.4481C132.034 23.2886 132.253 23.0415 132.531 22.7069L132.709 22.8768L132.6 23.0389C132.41 23.322 132.166 23.6102 131.867 23.9036C131.337 24.4235 130.861 24.6834 130.439 24.6834C130.3 24.6834 130.174 24.6525 130.06 24.5907C129.849 24.4672 129.744 24.2459 129.744 23.9268C129.744 23.8187 129.759 23.6463 129.79 23.4095C129.821 23.1727 129.867 22.9154 129.929 22.6375C129.538 23.2345 129.108 23.7235 128.64 24.1043C128.177 24.4852 127.67 24.6757 127.119 24.6757C126.671 24.6757 126.28 24.5161 125.945 24.197C125.611 23.8779 125.444 23.3863 125.444 22.7224C125.444 21.6004 125.958 20.4474 126.988 19.2636C128.012 18.085 129.01 17.4957 129.983 17.4957Z" fill="white"/>
<path d="M108.509 14.7626C108.509 14.9273 108.453 15.0817 108.339 15.2258C108.226 15.37 108.069 15.442 107.868 15.442C107.693 15.442 107.549 15.388 107.436 15.2799C107.323 15.1667 107.266 15.0354 107.266 14.8862C107.266 14.7832 107.315 14.6056 107.413 14.3534C107.413 14.2865 107.379 14.2273 107.313 14.1759C107.246 14.1296 107.158 14.1064 107.05 14.1064C106.546 14.1064 106.124 14.5207 105.784 15.3494C105.594 15.828 105.38 16.6335 105.143 17.7659H106.865L106.757 18.2831H105.035L103.9 23.2937C103.597 24.637 103.187 25.723 102.673 26.5517C102.163 27.3803 101.509 27.7947 100.712 27.7947C100.346 27.7947 100.048 27.6943 99.8161 27.4936C99.5793 27.2928 99.4609 27.069 99.4609 26.8219C99.4609 26.6675 99.5124 26.5234 99.6153 26.3896C99.7131 26.2557 99.8624 26.1888 100.063 26.1888C100.238 26.1888 100.387 26.2454 100.511 26.3587C100.629 26.4771 100.688 26.6212 100.688 26.791C100.688 26.8837 100.663 26.9763 100.611 27.069C100.555 27.1667 100.526 27.2337 100.526 27.2697C100.526 27.316 100.557 27.3546 100.619 27.3855C100.676 27.4164 100.75 27.4318 100.843 27.4318C101.28 27.4318 101.651 27.087 101.955 26.3973C102.114 26.037 102.261 25.5403 102.395 24.9072L103.792 18.2831H102.364L102.472 17.7659H103.931C104.245 16.5666 104.598 15.6788 104.989 15.1023C105.57 14.2171 106.288 13.7744 107.143 13.7744C107.534 13.7744 107.858 13.8748 108.116 14.0755C108.378 14.2762 108.509 14.5053 108.509 14.7626Z" fill="white"/>
<path d="M110.903 14.0137C111.171 14.0137 111.389 14.1218 111.559 14.338C111.729 14.5542 111.814 14.8167 111.814 15.1255C111.814 15.6453 111.616 16.1188 111.219 16.546C110.828 16.9681 110.422 17.2949 110 17.5265L109.76 17.6578L109.614 17.403C109.928 17.1868 110.167 16.999 110.332 16.8394C110.651 16.5357 110.81 16.263 110.81 16.0211C110.81 15.9541 110.797 15.8898 110.772 15.828C110.746 15.7663 110.71 15.7122 110.664 15.6659L110.517 15.5192C110.347 15.3494 110.234 15.2181 110.177 15.1255C110.121 15.0328 110.092 14.9093 110.092 14.7549C110.092 14.4873 110.177 14.2968 110.347 14.1836C110.522 14.0704 110.707 14.0137 110.903 14.0137Z" fill="white"/>
<path d="M33.5846 25.5823C34.0032 25.5823 34.3052 25.6766 34.4905 25.8654C34.6758 26.0541 34.7684 26.2377 34.7684 26.4161C34.7684 26.5774 34.7204 26.7026 34.6243 26.7918C34.5282 26.881 34.415 26.9256 34.2846 26.9256C34.1576 26.9256 34.0513 26.8862 33.9655 26.8072C33.8797 26.7283 33.8368 26.6305 33.8368 26.5139C33.8368 26.4247 33.8643 26.3286 33.9192 26.2256C33.9775 26.1227 34.0067 26.0558 34.0067 26.0249C34.0067 25.9631 33.9706 25.9117 33.8986 25.8705C33.8299 25.8259 33.7184 25.8036 33.564 25.8036C33.0116 25.8036 32.5312 26.1176 32.1229 26.7455C31.718 27.3734 31.5155 28.0322 31.5155 28.7219C31.5155 29.1096 31.5979 29.4133 31.7626 29.6329C31.9273 29.8525 32.1743 29.9623 32.5038 29.9623C32.768 29.9623 33.0236 29.8868 33.2706 29.7359C33.5211 29.5814 33.751 29.3859 33.9603 29.1491L33.9964 29.1079L34.1456 29.2212C33.9054 29.5265 33.6738 29.7616 33.4508 29.9263C33.0562 30.2111 32.6187 30.3535 32.1383 30.3535C31.6785 30.3535 31.3062 30.2077 31.0214 29.916C30.7366 29.6209 30.5942 29.2194 30.5942 28.7116C30.5942 27.9327 30.9116 27.2156 31.5464 26.5602C32.1743 25.9082 32.8537 25.5823 33.5846 25.5823Z" fill="white"/>
<path d="M110.381 25.5823C110.799 25.5823 111.101 25.6766 111.286 25.8654C111.472 26.0541 111.564 26.2377 111.564 26.4161C111.564 26.5774 111.516 26.7026 111.42 26.7918C111.324 26.881 111.211 26.9256 111.08 26.9256C110.954 26.9256 110.847 26.8862 110.761 26.8072C110.676 26.7283 110.633 26.6305 110.633 26.5139C110.633 26.4247 110.66 26.3286 110.715 26.2256C110.773 26.1227 110.803 26.0558 110.803 26.0249C110.803 25.9631 110.767 25.9117 110.694 25.8705C110.626 25.8259 110.514 25.8036 110.36 25.8036C109.807 25.8036 109.327 26.1176 108.919 26.7455C108.514 27.3734 108.311 28.0322 108.311 28.7219C108.311 29.1096 108.394 29.4133 108.558 29.6329C108.723 29.8525 108.97 29.9623 109.3 29.9623C109.564 29.9623 109.819 29.8868 110.067 29.7359C110.317 29.5814 110.547 29.3859 110.756 29.1491L110.792 29.1079L110.942 29.2212C110.701 29.5265 110.47 29.7616 110.247 29.9263C109.852 30.2111 109.415 30.3535 108.934 30.3535C108.474 30.3535 108.102 30.2077 107.817 29.916C107.533 29.6209 107.39 29.2194 107.39 28.7116C107.39 27.9327 107.708 27.2156 108.342 26.5602C108.97 25.9082 109.65 25.5823 110.381 25.5823Z" fill="white"/>
<path fill-rule="evenodd" clip-rule="evenodd" d="M96.4573 6.25182C96.5123 5.99057 96.7428 5.80359 97.0098 5.80359L112.355 5.80359C112.667 5.80359 112.92 6.05641 112.92 6.36828C112.92 6.68015 112.667 6.93297 112.355 6.93297L97.4679 6.93297L92.1724 32.0581C92.1205 32.3045 91.9117 32.4867 91.6605 32.5049C91.4093 32.523 91.1765 32.3726 91.0897 32.1362L87.8777 23.386L85.5032 24.5776C85.2244 24.7175 84.8851 24.6049 84.7452 24.3262C84.6053 24.0474 84.7179 23.7081 84.9966 23.5682L87.9366 22.0928C88.0804 22.0207 88.2481 22.0133 88.3977 22.0725C88.5473 22.1317 88.6645 22.2519 88.72 22.4029L91.4726 29.9019L96.4573 6.25182Z" fill="white" fill-opacity="0.3"/>
</svg>
