<svg width="469" height="473" viewBox="0 0 469 473" fill="none" xmlns="http://www.w3.org/2000/svg">
<path d="M452.307 311.271C452.527 311.756 453.099 311.972 453.585 311.752L461.499 308.164C461.985 307.944 462.2 307.372 461.98 306.886C461.76 306.401 461.188 306.186 460.702 306.406L453.667 309.594L450.479 302.559C450.258 302.074 449.686 301.858 449.201 302.078C448.715 302.299 448.5 302.871 448.72 303.356L452.307 311.271ZM458.814 176.298C470.088 213.313 471.414 259.682 452.283 310.532L454.09 311.212C473.374 259.955 472.057 213.149 460.661 175.736L458.814 176.298Z" fill="url(#paint0_linear_1640_11018)"/>
<path d="M322.822 443.554C322.596 444.037 322.804 444.612 323.287 444.838L331.161 448.52C331.645 448.746 332.22 448.538 332.446 448.056C332.672 447.573 332.464 446.998 331.98 446.772L324.981 443.499L328.257 436.507C328.483 436.024 328.275 435.45 327.792 435.224C327.308 434.998 326.733 435.206 326.507 435.689L322.822 443.554ZM418.726 376.186C397.541 402.977 366.374 427.494 323.368 443.056L324.026 444.871C367.373 429.185 398.836 404.452 420.242 377.383L418.726 376.186Z" fill="url(#paint1_linear_1640_11018)"/>
<path d="M122.591 432.765C122.073 432.893 121.757 433.416 121.885 433.934L123.971 442.368C124.099 442.885 124.623 443.201 125.141 443.073C125.658 442.944 125.974 442.421 125.846 441.903L123.992 434.407L131.49 432.549C132.008 432.421 132.324 431.898 132.196 431.38C132.068 430.863 131.545 430.547 131.027 430.675L122.591 432.765ZM250.14 464.114C212.553 467.537 168.25 459.966 123.322 432.875L122.324 434.528C167.611 461.835 212.325 469.496 250.314 466.037L250.14 464.114Z" fill="url(#paint2_linear_1640_11018)"/>
<path d="M13.9128 272.446C13.4851 272.127 12.88 272.216 12.5613 272.643L7.36866 279.607C7.05002 280.034 7.13847 280.639 7.56623 280.958C7.994 281.276 8.59909 281.188 8.91773 280.761L13.5334 274.57L19.7297 279.186C20.1575 279.504 20.7626 279.416 21.0812 278.989C21.3999 278.562 21.3114 277.957 20.8837 277.638L13.9128 272.446ZM65.7762 385.621C41.444 359.041 21.4072 321.726 14.2915 273.081L12.3802 273.359C19.5526 322.392 39.7616 360.063 64.3512 386.923L65.7762 385.621Z" fill="url(#paint3_linear_1640_11018)"/>
<path d="M72.3992 83.2242C72.4084 82.6913 71.9834 82.252 71.4501 82.2432L62.7593 82.0992C62.226 82.0904 61.7862 82.5153 61.7771 83.0483C61.768 83.5813 62.193 84.0205 62.7263 84.0293L70.4515 84.1573L70.3195 91.8778C70.3104 92.4107 70.7353 92.85 71.2686 92.8588C71.802 92.8676 72.2417 92.4427 72.2508 91.9098L72.3992 83.2242ZM9.74637 196.374C16.3842 159.739 35.0571 119.702 72.1048 83.902L70.7625 82.5145C33.4188 118.6 14.5543 159.004 7.84571 196.031L9.74637 196.374Z" fill="url(#paint4_linear_1640_11018)"/>
<path d="M257.582 15.8129C258.008 15.492 258.093 14.8867 257.772 14.4609L252.539 7.52186C252.218 7.09604 251.613 7.01097 251.187 7.33185C250.761 7.65272 250.676 8.25803 250.998 8.68384L255.649 14.8519L249.481 19.4998C249.056 19.8207 248.971 20.426 249.292 20.8518C249.613 21.2776 250.218 21.3627 250.644 21.0418L257.582 15.8129ZM128.184 36.8584C161.382 19.0522 205.021 8.71308 256.867 15.9979L257.135 14.0859C204.875 6.74294 160.823 17.1604 127.27 35.1569L128.184 36.8584Z" fill="url(#paint5_linear_1640_11018)"/>
<path d="M424.865 107.35C425.392 107.437 425.889 107.081 425.976 106.555L427.399 97.9864C427.486 97.4606 427.131 96.9638 426.604 96.8767C426.078 96.7897 425.581 97.1454 425.493 97.6713L424.229 105.288L416.605 104.027C416.079 103.94 415.582 104.296 415.494 104.822C415.407 105.348 415.763 105.845 416.289 105.932L424.865 107.35ZM327.837 30.8682C361.35 43.4527 395.879 67.3672 424.238 106.959L425.809 105.836C397.224 65.9287 362.384 41.7787 328.517 29.0615L327.837 30.8682Z" fill="url(#paint6_linear_1640_11018)"/>
<defs>
<linearGradient id="paint0_linear_1640_11018" x1="474.42" y1="148.133" x2="352.89" y2="236.977" gradientUnits="userSpaceOnUse">
<stop stop-color="#20BF55"/>
<stop offset="1" stop-color="#01BAEF"/>
</linearGradient>
<linearGradient id="paint1_linear_1640_11018" x1="444.368" y1="368.841" x2="304.468" y2="345.467" gradientUnits="userSpaceOnUse">
<stop stop-color="#20BF55"/>
<stop offset="1" stop-color="#01BAEF"/>
</linearGradient>
<linearGradient id="paint2_linear_1640_11018" x1="274.367" y1="483.366" x2="208.874" y2="350.325" gradientUnits="userSpaceOnUse">
<stop stop-color="#20BF55"/>
<stop offset="1" stop-color="#01BAEF"/>
</linearGradient>
<linearGradient id="paint3_linear_1640_11018" x1="67.149" y1="414.391" x2="123.491" y2="280.423" gradientUnits="userSpaceOnUse">
<stop stop-color="#20BF55"/>
<stop offset="1" stop-color="#01BAEF"/>
</linearGradient>
<linearGradient id="paint4_linear_1640_11018" x1="-14.4208" y1="214.697" x2="130.047" y2="184.458" gradientUnits="userSpaceOnUse">
<stop stop-color="#20BF55"/>
<stop offset="1" stop-color="#01BAEF"/>
</linearGradient>
<linearGradient id="paint5_linear_1640_11018" x1="98.4049" y1="28.7089" x2="210.907" y2="125.248" gradientUnits="userSpaceOnUse">
<stop stop-color="#20BF55"/>
<stop offset="1" stop-color="#01BAEF"/>
</linearGradient>
<linearGradient id="paint6_linear_1640_11018" x1="313.467" y1="6.24724" x2="325.257" y2="150.608" gradientUnits="userSpaceOnUse">
<stop stop-color="#20BF55"/>
<stop offset="1" stop-color="#01BAEF"/>
</linearGradient>
</defs>
</svg>
