<svg width="47" height="55" viewBox="0 0 47 55" fill="none" xmlns="http://www.w3.org/2000/svg">
<path d="M41.3083 23.7155C41.4534 22.5191 40.6132 21.4301 39.4315 21.2832C38.2499 21.1363 37.1744 21.987 37.0293 23.1834L41.3083 23.7155ZM23.3385 30.9299C22.1711 30.6935 21.0355 31.4601 20.8021 32.642C20.5686 33.824 21.3257 34.9738 22.4931 35.2102L23.3385 30.9299ZM20.743 42.9964C20.743 44.2019 21.708 45.1788 22.8985 45.1788C24.089 45.1788 25.0541 44.2019 25.0541 42.9964H20.743ZM25.0541 12.4409C25.0541 11.2355 24.089 10.2583 22.8985 10.2583C21.708 10.2583 20.743 11.2355 20.743 12.4409H25.0541ZM23.0063 9.82167C21.5131 9.82167 20.3118 8.60534 20.3118 7.0935H16.0007C16.0007 11.0161 19.1321 14.1868 23.0063 14.1868V9.82167ZM20.3118 7.0935C20.3118 5.58161 21.5131 4.36532 23.0063 4.36532V0.000244141C19.1321 0.000244141 16.0007 3.17085 16.0007 7.0935H20.3118ZM23.0063 4.36532C24.4995 4.36532 25.7008 5.58161 25.7008 7.0935H30.0119C30.0119 3.17085 26.8805 0.000244141 23.0063 0.000244141V4.36532ZM25.7008 7.0935C25.7008 8.60534 24.4995 9.82167 23.0063 9.82167V14.1868C26.8805 14.1868 30.0119 11.0161 30.0119 7.0935H25.7008ZM23.0063 50.6352C21.5131 50.6352 20.3118 49.4186 20.3118 47.907H16.0007C16.0007 51.8295 19.1321 55.0002 23.0063 55.0002V50.6352ZM20.3118 47.907C20.3118 46.3949 21.5131 45.1788 23.0063 45.1788V40.8137C19.1321 40.8137 16.0007 43.9845 16.0007 47.907H20.3118ZM23.0063 45.1788C24.4995 45.1788 25.7008 46.3949 25.7008 47.907H30.0119C30.0119 43.9845 26.8805 40.8137 23.0063 40.8137V45.1788ZM25.7008 47.907C25.7008 49.4186 24.4995 50.6352 23.0063 50.6352V55.0002C26.8805 55.0002 30.0119 51.8295 30.0119 47.907H25.7008ZM7.01197 20.9526C5.51876 20.9526 4.3175 19.7363 4.3175 18.2244H0.00634766C0.00634766 22.147 3.13778 25.3177 7.01197 25.3177V20.9526ZM4.3175 18.2244C4.3175 16.7125 5.51876 15.4962 7.01197 15.4962V11.1312C3.13778 11.1312 0.00634766 14.3018 0.00634766 18.2244H4.3175ZM7.01197 15.4962C8.50514 15.4962 9.70644 16.7125 9.70644 18.2244H14.0176C14.0176 14.3018 10.8861 11.1312 7.01197 11.1312V15.4962ZM9.70644 18.2244C9.70644 19.7363 8.50514 20.9526 7.01197 20.9526V25.3177C10.8861 25.3177 14.0176 22.147 14.0176 18.2244H9.70644ZM14.7892 25.5709C12.9323 25.5709 11.3482 25.0305 10.285 24.2687C9.21782 23.504 8.81835 22.6472 8.81835 21.9304H4.50719C4.50719 24.4358 5.92263 26.4905 7.79453 27.8318C9.67044 29.176 12.1496 29.936 14.7892 29.936V25.5709ZM20.7602 21.9304C20.7602 22.6472 20.3607 23.504 19.2936 24.2687C18.2304 25.0305 16.6463 25.5709 14.7892 25.5709V29.936C17.4289 29.936 19.9081 29.176 21.784 27.8318C23.6559 26.4905 25.0713 24.4358 25.0713 21.9304H20.7602ZM39.0007 20.9526C37.5075 20.9526 36.3062 19.7363 36.3062 18.2244H31.9951C31.9951 22.147 35.1265 25.3177 39.0007 25.3177V20.9526ZM36.3062 18.2244C36.3062 16.7125 37.5075 15.4962 39.0007 15.4962V11.1312C35.1265 11.1312 31.9951 14.3018 31.9951 18.2244H36.3062ZM39.0007 15.4962C40.4939 15.4962 41.6951 16.7125 41.6951 18.2244H46.0063C46.0063 14.3018 42.8749 11.1312 39.0007 11.1312V15.4962ZM41.6951 18.2244C41.6951 19.7363 40.4939 20.9526 39.0007 20.9526V25.3177C42.8749 25.3177 46.0063 22.147 46.0063 18.2244H41.6951ZM37.0293 23.1834C36.358 28.7181 30.6869 32.4179 23.3385 30.9299L22.4931 35.2102C31.3977 37.0135 40.2293 32.6118 41.3083 23.7155L37.0293 23.1834ZM20.743 12.4409V42.9964H25.0541V12.4409H20.743Z" fill="#2BBA71"/>
</svg>
