<svg width="97" height="39" viewBox="0 0 97 39" fill="none" xmlns="http://www.w3.org/2000/svg">
<path d="M0.657715 19.6893C0.657715 9.1101 9.23387 0.533936 19.8131 0.533936H77.8227C88.4019 0.533936 96.9781 9.1101 96.9781 19.6893V19.6893C96.9781 30.2686 88.4019 38.8447 77.8227 38.8447H19.8131C9.23387 38.8447 0.657715 30.2686 0.657715 19.6893V19.6893Z" fill="#5AC990"/>
<path d="M29.273 9.5481V9.73012C29.0271 9.73332 28.8595 9.74929 28.7701 9.77803C28.6136 9.82912 28.5353 9.93291 28.5353 10.0894C28.5353 10.1692 28.5625 10.281 28.6168 10.4247C28.6743 10.5684 28.7796 10.8095 28.9329 11.148L30.4658 14.5635L31.8598 10.8654C31.9204 10.7025 31.9667 10.5652 31.9987 10.4535C32.0306 10.3417 32.0466 10.2507 32.0466 10.1804C32.0466 9.99199 31.9651 9.86425 31.8023 9.79719C31.7065 9.75887 31.5484 9.73651 31.328 9.73012V9.5481H33.3352V9.71575C33.1276 9.7445 32.9743 9.80038 32.8753 9.88341C32.7252 10.008 32.5767 10.2586 32.4298 10.6355L30.2598 16.1538H30.1113L27.6923 10.76C27.4879 10.3034 27.3234 10.0191 27.1989 9.90736C27.0775 9.79559 26.8987 9.73172 26.6624 9.71575V9.5481H29.273Z" fill="white"/>
<path d="M32.9409 9.70483C33.6847 8.93258 34.1897 8.36559 34.4559 8.00386C34.7222 7.64212 34.8553 7.28953 34.8553 6.94608C34.8553 6.64532 34.774 6.41669 34.6114 6.26021C34.4488 6.1017 34.2547 6.02244 34.0292 6.02244C33.7508 6.02244 33.5252 6.12405 33.3524 6.32727C33.2569 6.43904 33.1655 6.61077 33.0781 6.84244L32.947 6.81501C33.0486 6.34759 33.2203 6.02346 33.4622 5.84259C33.706 5.65969 33.9672 5.56824 34.2456 5.56824C34.5891 5.56824 34.8664 5.67696 35.0778 5.89441C35.2912 6.10982 35.3979 6.37401 35.3979 6.68698C35.3979 7.02026 35.2831 7.34135 35.0534 7.65025C34.8238 7.95915 34.3249 8.50886 33.5567 9.2994H34.9559C35.151 9.2994 35.2881 9.27603 35.3674 9.22929C35.4466 9.18255 35.5361 9.06874 35.6356 8.88787L35.7149 8.92445L35.3765 9.77494H32.9409V9.70483Z" fill="white"/>
<path d="M30.1792 33.6924L32.2486 31.4985C32.6031 31.1249 32.8857 30.7896 33.0965 30.4926C33.4701 29.9688 33.6569 29.5249 33.6569 29.1609C33.6569 28.8224 33.5467 28.5349 33.3264 28.2986C33.1092 28.0623 32.8106 27.9442 32.4306 27.9442C32.0729 27.9442 31.76 28.0639 31.4917 28.3034C31.348 28.4344 31.2027 28.6228 31.0558 28.8687L30.8498 28.7968C31.0957 28.1326 31.4821 27.6727 32.0091 27.4172C32.2837 27.2863 32.5759 27.2208 32.8857 27.2208C33.3871 27.2208 33.7815 27.3917 34.0689 27.7334C34.3595 28.0751 34.5048 28.4551 34.5048 28.8735C34.5048 29.2375 34.393 29.5808 34.1695 29.9034C33.9491 30.2259 33.5739 30.6522 33.0438 31.1824L31.1564 33.0697V33.1128H33.0198C33.2913 33.1128 33.4924 33.0697 33.6234 32.9835C33.7575 32.8973 33.8821 32.736 33.997 32.4997L34.1551 32.5667L33.6665 33.8601H30.1792V33.6924Z" fill="white"/>
<path d="M56.5979 19.1061H57.2686V21.2521H59.405V21.9227H57.2686V24.064H56.5979V21.9227H54.4519V21.2521H56.5979V19.1061Z" fill="white"/>
<path d="M64.0937 24.9502C64.0937 25.2184 64.2438 25.4036 64.544 25.5058C64.8474 25.608 65.1939 25.6591 65.5835 25.6591C66.1136 25.6591 66.5447 25.5665 66.8768 25.3813C67.209 25.1993 67.375 24.9741 67.375 24.7059C67.375 24.4919 67.2409 24.3498 66.9726 24.2795C66.8066 24.238 66.492 24.2141 66.029 24.2077C65.9108 24.2045 65.7863 24.1997 65.6553 24.1933C65.5244 24.1901 65.4046 24.1853 65.296 24.1789C65.2258 24.1757 65.1124 24.163 64.9559 24.1406C64.7995 24.1183 64.6829 24.0991 64.6063 24.0831C64.5679 24.0831 64.4737 24.1837 64.3236 24.3849C64.1703 24.5893 64.0937 24.7777 64.0937 24.9502ZM64.7164 22.4545C64.4258 22.3587 64.1991 22.1878 64.0362 21.9419C63.8765 21.696 63.7967 21.4198 63.7967 21.1132C63.7967 20.7396 63.9452 20.3851 64.2422 20.0498C64.5392 19.7144 64.9591 19.5468 65.502 19.5468C65.7352 19.5468 65.9922 19.6027 66.2733 19.7144C66.5543 19.823 66.8241 19.8773 67.0828 19.8773C67.1499 19.8773 67.2505 19.8757 67.3846 19.8725C67.5219 19.8661 67.6209 19.8629 67.6816 19.8629H67.7391V20.2509H66.9104C66.9678 20.3851 67.0126 20.5016 67.0445 20.6006C67.0988 20.7859 67.1259 20.9615 67.1259 21.1276C67.1259 21.4916 66.9742 21.8269 66.6708 22.1335C66.3707 22.4369 65.9651 22.5886 65.4541 22.5886C65.3743 22.5886 65.2306 22.5742 65.023 22.5455C64.9304 22.5455 64.8074 22.6237 64.6542 22.7802C64.5041 22.9367 64.429 23.0644 64.429 23.1634C64.429 23.2656 64.5408 23.3407 64.7643 23.3886C64.9112 23.4205 65.0741 23.4365 65.2529 23.4365C66.0737 23.4365 66.6309 23.4828 66.9247 23.5754C67.4069 23.7255 67.6481 24.048 67.6481 24.543C67.6481 25.0476 67.3654 25.45 66.8002 25.7501C66.2381 26.0503 65.6697 26.2004 65.0949 26.2004C64.5711 26.2004 64.156 26.0934 63.8494 25.8795C63.5428 25.6687 63.3895 25.4468 63.3895 25.2136C63.3895 25.0987 63.4295 24.9853 63.5093 24.8735C63.5923 24.7649 63.7536 24.6021 63.9931 24.3849L64.3093 24.1023L64.3667 24.0448C64.2198 23.9873 64.1097 23.9314 64.0362 23.8772C63.9085 23.7782 63.8446 23.6648 63.8446 23.5371C63.8446 23.4189 63.8989 23.2896 64.0075 23.149C64.1192 23.0053 64.3556 22.7738 64.7164 22.4545ZM65.6266 22.3587C65.8022 22.3587 65.9491 22.3107 66.0673 22.2149C66.2589 22.0617 66.3547 21.795 66.3547 21.415C66.3547 21.1116 66.2765 20.7699 66.12 20.3899C65.9667 20.0098 65.7096 19.8198 65.3487 19.8198C65.0358 19.8198 64.8202 19.9683 64.7021 20.2653C64.6414 20.4218 64.611 20.615 64.611 20.8449C64.611 21.2345 64.7053 21.5842 64.8937 21.894C65.0821 22.2038 65.3264 22.3587 65.6266 22.3587Z" fill="white"/>
<path d="M72.4977 19.6617V19.7767L69.8391 23.7622H71.1948C71.6642 23.7622 71.9612 23.7031 72.0857 23.585C72.2103 23.4636 72.3332 23.1698 72.4546 22.7035L72.6222 22.7371L72.4881 24.064H68.7757V23.9538L71.3959 19.954H70.1122C69.7673 19.954 69.5421 20.013 69.4367 20.1312C69.3313 20.2493 69.2579 20.4793 69.2164 20.821H69.0487L69.0679 19.6617H72.4977Z" fill="white"/>
<path d="M37.0605 14.5211C37.388 14.5211 37.6748 14.6349 37.921 14.8625C38.1672 15.0878 38.2903 15.4083 38.2903 15.8241H36.078C36.1013 16.3629 36.2232 16.7554 36.4438 17.0016C36.6645 17.2478 36.9258 17.3709 37.2277 17.3709C37.4716 17.3709 37.6771 17.307 37.8443 17.1793C38.0116 17.0515 38.166 16.8704 38.3077 16.6358L38.4296 16.6776C38.3344 16.9726 38.1556 17.2455 37.8931 17.4963C37.633 17.7471 37.3136 17.8725 36.9351 17.8725C36.4984 17.8725 36.1605 17.7076 35.9213 17.3778C35.6844 17.048 35.5659 16.6683 35.5659 16.2386C35.5659 15.7718 35.7041 15.3688 35.9805 15.0298C36.2569 14.6907 36.6169 14.5211 37.0605 14.5211ZM36.8584 14.7754C36.5936 14.7754 36.3916 14.8927 36.2522 15.1273C36.1779 15.2527 36.1245 15.4107 36.092 15.6011H37.5621C37.5366 15.3688 37.4925 15.1958 37.4298 15.082C37.316 14.8776 37.1255 14.7754 36.8584 14.7754Z" fill="white"/>
<path d="M74.5197 24.327C74.8472 24.327 75.134 24.4408 75.3802 24.6684C75.6264 24.8937 75.7495 25.2142 75.7495 25.63H73.5373C73.5605 26.1688 73.6824 26.5613 73.9031 26.8075C74.1237 27.0537 74.385 27.1768 74.6869 27.1768C74.9308 27.1768 75.1363 27.1129 75.3036 26.9852C75.4708 26.8574 75.6252 26.6763 75.7669 26.4417L75.8888 26.4835C75.7936 26.7785 75.6148 27.0514 75.3523 27.3022C75.0922 27.553 74.7729 27.6785 74.3943 27.6785C73.9576 27.6785 73.6197 27.5136 73.3805 27.1838C73.1436 26.854 73.0251 26.4742 73.0251 26.0445C73.0251 25.5777 73.1633 25.1748 73.4397 24.8357C73.7161 24.4966 74.0761 24.327 74.5197 24.327ZM74.3176 24.5813C74.0529 24.5813 73.8508 24.6986 73.7115 24.9332C73.6371 25.0586 73.5837 25.2166 73.5512 25.407H75.0214C74.9958 25.1748 74.9517 25.0017 74.889 24.8879C74.7752 24.6835 74.5847 24.5813 74.3176 24.5813Z" fill="white"/>
<path fill-rule="evenodd" clip-rule="evenodd" d="M47.9161 22.8119H21.1604V21.92H47.9161V22.8119Z" fill="white"/>
</svg>
