<svg width="34" height="33" viewBox="0 0 34 33" fill="none" xmlns="http://www.w3.org/2000/svg">
<rect x="0.904541" y="0.908325" width="32.1068" height="32.0492" rx="9.67737" fill="#5AC990"/>
<g clip-path="url(#clip0_1365_12795)">
<path d="M17.2345 9.74907C17.2967 9.33526 17.5817 8.89547 17.9874 8.89547C18.398 8.89547 18.7321 9.22893 18.7321 9.6388H20.2214C20.2214 8.40918 19.2192 7.40881 17.9874 7.40881C16.7353 7.40881 15.92 8.47515 15.7614 9.53001L15.2826 12.7608H12.9982V14.2474H15.0622L13.6019 24.0992L13.5976 24.1341C13.558 24.5288 13.2479 24.9514 12.8492 24.9514C12.4386 24.9514 12.1046 24.6179 12.1046 24.208H10.6152C10.6152 25.4376 11.6174 26.438 12.8492 26.438C14.1025 26.438 14.963 25.3549 15.0776 24.3011L16.5677 14.2474H18.8065V12.7608H16.7881L17.2345 9.74907Z" fill="white"/>
<path d="M23.2963 16.6208H21.5078L20.5402 18.0735L19.8951 16.6208H18.2661L19.5628 19.541L17.4973 22.6418H19.2858L20.2781 21.152L20.9397 22.6418H22.5688L21.2556 19.6845L23.2963 16.6208Z" fill="white"/>
</g>
<defs>
<clipPath id="clip0_1365_12795">
<rect width="19.0634" height="19.0292" fill="white" transform="translate(7.42407 7.41418)"/>
</clipPath>
</defs>
</svg>
